<svg width="30" height="30" viewBox="0 0 30 30" fill="none" xmlns="http://www.w3.org/2000/svg">
<path d="M24.375 4.6875H5.625C5.10723 4.6875 4.6875 5.10723 4.6875 5.625V24.375C4.6875 24.8928 5.10723 25.3125 5.625 25.3125H24.375C24.8928 25.3125 25.3125 24.8928 25.3125 24.375V5.625C25.3125 5.10723 24.8928 4.6875 24.375 4.6875Z" stroke="#CACACA" stroke-width="1.6" stroke-linecap="round" stroke-linejoin="round"/>
<path d="M20.625 2.8125V4.0625" stroke="#CACACA" stroke-width="1.6" stroke-linecap="round" stroke-linejoin="round"/>
<path d="M9.375 2.8125V4.0625" stroke="#CACACA" stroke-width="1.6" stroke-linecap="round" stroke-linejoin="round"/>
<path d="M19.2188 10.7812L10.7812 19.2188" stroke="#CACACA" stroke-width="1.6" stroke-linecap="round" stroke-linejoin="round"/>
<path d="M11.9531 13.5938C12.8592 13.5938 13.5938 12.8592 13.5938 11.9531C13.5938 11.047 12.8592 10.3125 11.9531 10.3125C11.047 10.3125 10.3125 11.047 10.3125 11.9531C10.3125 12.8592 11.047 13.5938 11.9531 13.5938Z" stroke="#CACACA" stroke-width="1.6" stroke-miterlimit="10"/>
<path d="M18.0469 19.6875C18.953 19.6875 19.6875 18.953 19.6875 18.0469C19.6875 17.1408 18.953 16.4062 18.0469 16.4062C17.1408 16.4062 16.4062 17.1408 16.4062 18.0469C16.4062 18.953 17.1408 19.6875 18.0469 19.6875Z" stroke="#CACACA" stroke-width="1.6" stroke-miterlimit="10"/>
</svg>
