<svg width="30" height="30" viewBox="0 0 30 30" fill="none" xmlns="http://www.w3.org/2000/svg">
<path d="M15.5147 14.2647C18.0731 14.2647 20.147 12.1907 20.147 9.63235C20.147 7.07398 18.0731 5 15.5147 5C12.9563 5 10.8823 7.07398 10.8823 9.63235C10.8823 12.1907 12.9563 14.2647 15.5147 14.2647Z" stroke="black" stroke-width="1.6" stroke-linecap="round" stroke-linejoin="round"/>
<path d="M23.7794 24.6876C24.3317 24.6876 24.7794 24.2399 24.7794 23.6876V22.3714C24.7794 21.1429 24.2914 19.9646 23.4226 19.0959C22.5539 18.2271 21.3756 17.7391 20.1471 17.7391H10.8824C9.65378 17.7391 8.47552 18.2271 7.60678 19.0959C6.73805 19.9646 6.25 21.1429 6.25 22.3714V23.6876" stroke="black" stroke-width="1.6" stroke-linecap="round" stroke-linejoin="round"/>
</svg>
