<svg width="44" height="44" viewBox="0 0 44 44" fill="none" xmlns="http://www.w3.org/2000/svg">
<path d="M19.8187 20.3281C19.5794 19.0498 18.5199 18.3389 17.262 18.3457C15.5531 18.3389 14.2884 19.6514 14.2816 22.0508C14.2884 24.4639 15.5599 25.7627 17.262 25.7559C18.5062 25.7627 19.5589 25.0654 19.8187 23.8008L21.3363 23.8145C21.0218 25.7695 19.429 27.1367 17.2484 27.1367C14.6712 27.1367 12.7913 25.2158 12.7913 22.0508C12.7913 18.8857 14.6849 16.9648 17.2484 16.9648C19.3402 16.9648 21.0013 18.2021 21.3363 20.3281H19.8187ZM29.3766 17.1016H30.8805V23.6094C30.8874 25.6875 29.3219 27.1641 26.9567 27.1641C24.571 27.1641 23.0124 25.6875 23.0192 23.6094V17.1016H24.5231V23.4863C24.5163 24.8262 25.4528 25.79 26.9567 25.7969C28.4538 25.79 29.3766 24.8262 29.3766 23.4863V17.1016Z" fill="black"/>
<path d="M44 41H0V47H44V41Z" fill="black" mask="url(#path-1-inside-1_282_2637)"/>
</svg>
