<svg width="60" height="44" viewBox="0 0 60 44" fill="none" xmlns="http://www.w3.org/2000/svg">
<path d="M19.8877 20.2324C19.5185 19.0635 18.623 18.3389 17.3174 18.3457C15.6494 18.3389 14.3711 19.6514 14.3642 22.0508C14.3711 24.4434 15.6357 25.7627 17.3857 25.7559C18.9648 25.7627 20.0107 24.7578 20.0381 23.1719H17.6045V21.9277H21.501V23.0488C21.501 25.5576 19.7783 27.1367 17.3721 27.1367C14.6924 27.1367 12.874 25.1885 12.874 22.0508C12.874 18.8926 14.7471 16.9648 17.3037 16.9648C19.4433 16.9648 21.0976 18.2979 21.4326 20.2324H19.8877ZM28.68 19.7129C28.5843 18.79 27.7777 18.2637 26.6429 18.2637C25.4329 18.2637 24.6673 18.8857 24.6605 19.7266C24.6605 20.6631 25.679 21.0322 26.4652 21.2168L27.4222 21.4766C28.6868 21.7842 30.2728 22.4746 30.2796 24.2656C30.2728 25.9404 28.9398 27.1641 26.6019 27.1641C24.387 27.1641 22.9925 26.0566 22.8968 24.252H24.4007C24.4896 25.332 25.4466 25.8447 26.6019 25.8516C27.8665 25.8447 28.7825 25.209 28.7894 24.2383C28.7825 23.377 27.9622 23.0283 26.9163 22.748L25.7406 22.4336C24.1478 21.9961 23.1634 21.1895 23.1566 19.8086C23.1634 18.0996 24.681 16.9648 26.6839 16.9648C28.6937 16.9648 30.095 18.1133 30.1429 19.7129H28.68ZM31.8122 27V25.9062L35.2438 22.4473C36.3307 21.3193 36.8708 20.6904 36.8708 19.8223C36.8708 18.8447 36.0778 18.2227 35.0387 18.2227C33.9382 18.2227 33.2409 18.9199 33.2341 19.9727H31.8122C31.7985 18.1611 33.1794 16.9648 35.0661 16.9648C36.9733 16.9648 38.2926 18.1748 38.3063 19.7812C38.2926 20.8887 37.7731 21.7705 35.9137 23.5957L33.904 25.6328V25.7148H38.4704V27H31.8122ZM43.5576 27.1367C41.6846 27.1367 40.2764 25.9951 40.208 24.416H41.6709C41.7529 25.2568 42.5596 25.8721 43.5576 25.8789C44.7608 25.8721 45.6221 25.0039 45.6221 23.8281C45.6221 22.625 44.7334 21.75 43.4893 21.7363C42.6963 21.7363 42.0879 22.0029 41.7529 22.6113H40.3311L40.9736 17.1016H46.5791V18.3867H42.2178L41.8897 21.1621H41.9854C42.3955 20.7656 43.0928 20.499 43.8447 20.4922C45.711 20.499 47.085 21.8799 47.085 23.7871C47.085 25.7354 45.6221 27.1367 43.5576 27.1367Z" fill="#A3A3A3"/>
</svg>
