<svg width="24" height="24" viewBox="0 0 24 24" fill="none" xmlns="http://www.w3.org/2000/svg">
<path d="M8 21H14" stroke="#333333" stroke-width="1.6" stroke-linecap="round" stroke-linejoin="round"/>
<path d="M4.26904 9.75C4.2678 8.86051 4.44262 7.97957 4.78343 7.15796C5.12424 6.33635 5.6243 5.59031 6.25477 4.96286C6.88525 4.33541 7.63368 3.83895 8.45693 3.5021C9.28017 3.16525 10.1619 2.99467 11.0514 3.00019C14.763 3.02778 17.7317 6.11282 17.7317 9.83474V10.5C17.7317 13.8577 18.4342 15.8062 19.0529 16.8711C19.1196 16.9849 19.1551 17.1142 19.1558 17.2461C19.1565 17.378 19.1224 17.5077 19.0569 17.6222C18.9915 17.7367 18.8971 17.8319 18.7831 17.8982C18.6691 17.9646 18.5397 17.9997 18.4078 18H3.59222C3.46034 17.9997 3.33087 17.9645 3.21689 17.8982C3.1029 17.8318 3.00844 17.7366 2.94301 17.6221C2.87759 17.5076 2.84352 17.3778 2.84425 17.2459C2.84498 17.1141 2.88048 16.9847 2.94716 16.8709C3.56622 15.806 4.26904 13.8575 4.26904 10.5L4.26904 9.75Z" stroke="#333333" stroke-width="1.6" stroke-linecap="round" stroke-linejoin="round"/>
<circle cx="21.5" cy="2.5" r="2.5" fill="#EC6653"/>
</svg>
