<svg width="49" height="44" viewBox="0 0 49 44" fill="none" xmlns="http://www.w3.org/2000/svg">
<path d="M23.0365 15.9258V24.8945H21.7376V20.2871H19.3997V19.2344H21.7376V15.9258H23.0365ZM12.8372 22.3379C14.7171 21.7021 15.8929 20.0889 15.8861 18.4004V17.9219H13.2337V16.8555H19.8372V17.9219H17.2122V18.4004C17.2054 19.9248 18.3128 21.4629 20.1654 22.0781L19.4954 23.1172C18.1214 22.6387 17.1029 21.6543 16.5697 20.4375C16.0365 21.791 14.9632 22.8711 13.5072 23.3906L12.8372 22.3379ZM15.0794 27.9023V24.0879H16.3783V26.8496H23.3646V27.9023H15.0794ZM28.6432 19.6719C28.6432 21.5996 29.5387 23.5615 31.2272 24.4707L30.5026 25.4277C29.3132 24.7988 28.4928 23.6299 28.0485 22.2422C27.611 23.7256 26.7907 25.0039 25.6081 25.7148L24.8425 24.7305C26.5378 23.7461 27.4128 21.6475 27.4264 19.6719V19.1797H25.2116V18.1133H27.4264V16.3496H28.6432V18.1133H30.8171V19.1797H28.6432V19.6719ZM30.0104 21.7637V20.6836H31.7741V16.1719H33.0046V27.5469H31.7741V21.7637H30.0104ZM34.2487 28.1621V15.9121H35.4928V28.1621H34.2487Z" fill="black"/>
<path d="M49 41H0V47H49V41Z" fill="black" mask="url(#path-1-inside-1_282_2619)"/>
</svg>
