<svg width="80" height="44" viewBox="0 0 80 44" fill="none" xmlns="http://www.w3.org/2000/svg">
<path d="M13.3701 27V17.1016H19.5771V18.4004H14.874V21.3945H19.249V22.6797H14.874V25.7012H19.6318V27H13.3701ZM21.3558 27V19.5762H22.764V20.793H22.846C23.1605 19.9658 23.8919 19.4805 24.8694 19.4805C25.8607 19.4805 26.5511 19.9658 26.8655 20.793H26.9476C27.2962 19.9932 28.1028 19.4805 29.1761 19.4805C30.5159 19.4805 31.4661 20.3213 31.473 22.0234V27H30.0101V22.1602C30.0101 21.1553 29.3812 20.7383 28.6155 20.7383C27.679 20.7383 27.139 21.3809 27.139 22.2695V27H25.6898V22.0781C25.6898 21.2646 25.136 20.7383 24.3362 20.7383C23.5159 20.7383 22.8187 21.4219 22.8187 22.4199V27H21.3558ZM32.9508 24.9082C32.944 23.2129 34.3864 22.7754 35.7262 22.6797C36.2184 22.6523 37.3327 22.5908 37.6745 22.5771L37.6676 21.9824C37.6745 21.1416 37.1549 20.6562 36.1637 20.6562C35.3024 20.6562 34.7829 21.0527 34.6325 21.5996H33.1833C33.3131 20.3691 34.4616 19.4805 36.2184 19.4805C37.401 19.4805 39.1237 19.9111 39.1305 22.0645V27H37.7086V25.9883H37.654C37.3669 26.542 36.6833 27.1641 35.4528 27.1641C34.0446 27.1641 32.944 26.3574 32.9508 24.9082ZM34.3727 24.9219C34.3727 25.6328 34.9606 25.9951 35.7809 26.002C36.9704 25.9951 37.6813 25.2021 37.6813 24.3203L37.6745 23.6436C37.3395 23.6641 36.2799 23.7393 35.9313 23.7598C34.9743 23.8281 34.3727 24.1904 34.3727 24.9219ZM40.9502 27V19.5762H42.3584V20.752H42.4404C42.7139 19.959 43.459 19.46 44.3271 19.4668C44.5049 19.46 44.792 19.4805 44.9424 19.4941V20.8887C44.8193 20.8613 44.4775 20.7998 44.1768 20.8066C43.165 20.7998 42.4131 21.5039 42.4131 22.4746V27H40.9502ZM50.0023 19.5762V20.7383H48.4847V24.8125C48.4915 25.6533 48.9017 25.8037 49.3734 25.8105C49.5853 25.8105 49.9066 25.79 50.1117 25.7695V27.041C49.9134 27.0684 49.599 27.0957 49.1956 27.0957C48.054 27.0957 47.0218 26.4668 47.0355 25.1133V20.7383H45.9417V19.5762H47.0355V17.7988H48.4847V19.5762H50.0023ZM51.4665 27V25.9062L54.8981 22.4473C55.985 21.3193 56.5251 20.6904 56.5251 19.8223C56.5251 18.8447 55.7321 18.2227 54.6931 18.2227C53.5925 18.2227 52.8952 18.9199 52.8884 19.9727H51.4665C51.4528 18.1611 52.8337 16.9648 54.7204 16.9648C56.6276 16.9648 57.947 18.1748 57.9606 19.7812C57.947 20.8887 57.4274 21.7705 55.5681 23.5957L53.5583 25.6328V25.7148H58.1247V27H51.4665ZM59.4112 25.0723V23.8555L63.7862 17.1016H65.6455V23.8008H66.9991V25.0723H65.6455V27H64.2237V25.0723H59.4112ZM60.9971 23.8008H64.2237V18.8926H64.1143L60.9971 23.7188V23.8008Z" fill="black"/>
<path d="M80 41H0V47H80V41Z" fill="black" mask="url(#path-1-inside-1_282_2627)"/>
</svg>
