<svg width="64" height="44" viewBox="0 0 64 44" fill="none" xmlns="http://www.w3.org/2000/svg">
<path d="M21.8877 20.2324C21.5185 19.0635 20.623 18.3389 19.3174 18.3457C17.6494 18.3389 16.3711 19.6514 16.3642 22.0508C16.3711 24.4434 17.6357 25.7627 19.3857 25.7559C20.9648 25.7627 22.0107 24.7578 22.0381 23.1719H19.6045V21.9277H23.501V23.0488C23.501 25.5576 21.7783 27.1367 19.3721 27.1367C16.6924 27.1367 14.874 25.1885 14.874 22.0508C14.874 18.8926 16.7471 16.9648 19.3037 16.9648C21.4433 16.9648 23.0976 18.2979 23.4326 20.2324H21.8877ZM30.68 19.7129C30.5843 18.79 29.7777 18.2637 28.6429 18.2637C27.4329 18.2637 26.6673 18.8857 26.6605 19.7266C26.6605 20.6631 27.679 21.0322 28.4652 21.2168L29.4222 21.4766C30.6868 21.7842 32.2728 22.4746 32.2796 24.2656C32.2728 25.9404 30.9398 27.1641 28.6019 27.1641C26.387 27.1641 24.9925 26.0566 24.8968 24.252H26.4007C26.4896 25.332 27.4466 25.8447 28.6019 25.8516C29.8665 25.8447 30.7825 25.209 30.7894 24.2383C30.7825 23.377 29.9622 23.0283 28.9163 22.748L27.7406 22.4336C26.1478 21.9961 25.1634 21.1895 25.1566 19.8086C25.1634 18.0996 26.681 16.9648 28.6839 16.9648C30.6937 16.9648 32.095 18.1133 32.1429 19.7129H30.68ZM33.8122 27V25.9062L37.2438 22.4473C38.3307 21.3193 38.8708 20.6904 38.8708 19.8223C38.8708 18.8447 38.0778 18.2227 37.0387 18.2227C35.9382 18.2227 35.2409 18.9199 35.2341 19.9727H33.8122C33.7985 18.1611 35.1794 16.9648 37.0661 16.9648C38.9733 16.9648 40.2926 18.1748 40.3063 19.7812C40.2926 20.8887 39.7731 21.7705 37.9137 23.5957L35.904 25.6328V25.7148H40.4704V27H33.8122ZM45.5576 27.1367C43.6846 27.1367 42.2764 25.9951 42.208 24.416H43.6709C43.7529 25.2568 44.5596 25.8721 45.5576 25.8789C46.7608 25.8721 47.6221 25.0039 47.6221 23.8281C47.6221 22.625 46.7334 21.75 45.4893 21.7363C44.6963 21.7363 44.0879 22.0029 43.7529 22.6113H42.3311L42.9736 17.1016H48.5791V18.3867H44.2178L43.8897 21.1621H43.9854C44.3955 20.7656 45.0928 20.499 45.8447 20.4922C47.711 20.499 49.085 21.8799 49.085 23.7871C49.085 25.7354 47.6221 27.1367 45.5576 27.1367Z" fill="black"/>
<path d="M64 41H0V47H64V41Z" fill="black" mask="url(#path-1-inside-1_282_2631)"/>
</svg>
