<svg width="81" height="44" viewBox="0 0 81 44" fill="none" xmlns="http://www.w3.org/2000/svg">
<path d="M13.514 27L17.93 18.4688V18.3867H12.8304V17.1016H19.4886V18.4414L15.0862 27H13.514ZM25.4508 21.4219V22.6797H21.0621V21.4219H25.4508ZM27.3935 27V17.1016H33.6006V18.4004H28.8974V21.3945H33.2724V22.6797H28.8974V25.7012H33.6553V27H27.3935ZM36.8421 17.1016V27H35.3792V17.1016H36.8421ZM41.8747 27.1504C39.6872 27.1504 38.3405 25.6396 38.3473 23.3359C38.3405 21.0527 39.7077 19.4805 41.779 19.4805C43.4675 19.4805 45.0739 20.5264 45.0739 23.2129V23.7324H39.7966C39.8376 25.1475 40.6716 25.9473 41.8884 25.9473C42.7155 25.9473 43.2555 25.5918 43.5016 25.1406H44.9782C44.6501 26.3438 43.5085 27.1504 41.8747 27.1504ZM39.8034 22.6387H43.6384C43.6384 21.5107 42.9069 20.6768 41.7927 20.6836C40.6237 20.6768 39.8649 21.5928 39.8034 22.6387ZM52.7178 19.5762L50.0244 27H48.4522L45.7588 19.5762H47.3311L49.2041 25.2773H49.2725L51.1455 19.5762H52.7178ZM56.9027 27.1504C54.7152 27.1504 53.3685 25.6396 53.3754 23.3359C53.3685 21.0527 54.7357 19.4805 56.807 19.4805C58.4955 19.4805 60.1019 20.5264 60.1019 23.2129V23.7324H54.8246C54.8656 25.1475 55.6996 25.9473 56.9164 25.9473C57.7435 25.9473 58.2836 25.5918 58.5296 25.1406H60.0062C59.6781 26.3438 58.5365 27.1504 56.9027 27.1504ZM54.8314 22.6387H58.6664C58.6664 21.5107 57.9349 20.6768 56.8207 20.6836C55.6517 20.6768 54.8929 21.5928 54.8314 22.6387ZM63.07 22.5977V27H61.6071V19.5762H63.0153V20.793H63.0974C63.446 19.9932 64.1774 19.4805 65.2849 19.4805C66.8093 19.4805 67.821 20.4443 67.8142 22.2832V27H66.3649V22.4609C66.3581 21.3809 65.7771 20.7383 64.7927 20.7383C63.7878 20.7383 63.07 21.415 63.07 22.5977Z" fill="black"/>
<path d="M81 41H0V47H81V41Z" fill="black" mask="url(#path-1-inside-1_282_2629)"/>
</svg>
